<?xml version="1.0" standalone="no"?>
<!DOCTYPE svg PUBLIC "-//W3C//DTD SVG 20010904//EN"
 "http://www.w3.org/TR/2001/REC-SVG-20010904/DTD/svg10.dtd">
<svg version="1.0" xmlns="http://www.w3.org/2000/svg"
 width="310.000000pt" height="310.000000pt" viewBox="0 0 310.000000 310.000000"
 preserveAspectRatio="xMidYMid meet">
<metadata>
Created by potrace 1.11, written by Peter Selinger 2001-2013
</metadata>
<g transform="translate(0.000000,310.000000) scale(0.100000,-0.100000)"
fill="#000000" stroke="none">
<path d="M112 3084 c-38 -17 -60 -36 -88 -79 -19 -29 -19 -61 -21 -1435 -3
-1595 -8 -1477 77 -1535 l45 -30 1426 0 1425 0 41 27 c22 14 48 43 59 65 18
37 19 81 19 1458 l0 1420 -23 37 c-13 20 -40 47 -60 60 l-37 23 -1415 2
c-1219 1 -1420 -1 -1448 -13z"/>
</g>
</svg>
